<?xml version="1.0" encoding="utf-8"?>
<!-- Generator: Adobe Illustrator 26.5.0, SVG Export Plug-In . SVG Version: 6.00 Build 0)  -->
<svg version="1.1" id="Layer_1" xmlns="http://www.w3.org/2000/svg" xmlns:xlink="http://www.w3.org/1999/xlink" x="0px" y="0px"
	 viewBox="0 0 24 24" style="enable-background:new 0 0 24 24;" xml:space="preserve">
<path d="M23.72,5.72c-0.37-0.36-0.96-0.36-1.33,0.01L12,16.27L1.61,5.73C1.24,5.36,0.65,5.36,0.28,5.72
	c-0.37,0.36-0.37,0.96-0.01,1.33l11.06,11.22c0,0,0,0,0.01,0c0,0,0,0,0,0.01c0.06,0.06,0.13,0.09,0.2,0.13
	c0.04,0.02,0.07,0.05,0.1,0.07c0.11,0.05,0.23,0.07,0.35,0.07s0.24-0.02,0.35-0.07c0.04-0.02,0.07-0.05,0.1-0.07
	c0.07-0.04,0.14-0.07,0.2-0.13c0,0,0,0,0-0.01c0,0,0,0,0.01,0L23.73,7.05C24.09,6.68,24.09,6.09,23.72,5.72z"/>
</svg>
